# xmcd
#
# Track frame offsets:
# 183
# 16548
# 28613
# 40605
# 51190
# 63578
# 78765
# 88588
# 100865
# 111853
# 123443
# 135835
# 148788
# 163113
# 174308
# 186153
#
# Disc length: 2694 seconds
#
#
# Revision: 0
# Processed by: cddbd v1.5.1PL2 Copyright (c) Steve Scherf et al.
# Submitted via: FreeRIP 2.945 
#
DISCID=c40a8410
DTITLE=Various Artist - Ballads For Lovers Vol3. - Together
DYEAR=1992
DGENRE=Pop-Folk
TTITLE0=The Foundations - Together
TTITLE1=Joe cocker - You Are So Beautiful
TTITLE2=Gerry and The Pacemakers - You'll Never Walk Alone
TTITLE3=The Overlanders - Michelle
TTITLE4=The Platters - Only You
TTITLE5=The Real Thing - You to Me Are Everything
TTITLE6=The Troggs - With A Girl Like You
TTITLE7=Mary Wells - My Guy
TTITLE8=The Searchers - Sweets For My Sweet
TTITLE9=Paul Anka - Put Your Head On My Shoulder
TTITLE10=San Cooke - You Send Me
TTITLE11=B.J. Kramer - Dizzy
TTITLE12=Percy Sledge - Warm and Tender Love
TTITLE13=The Yardbirds - For Your Love
TTITLE14=The Bay City Rollers - You Made Me Believe In Magic
TTITLE15=The Flowerpot Men - Let's Go To San Francisco
EXTD=
EXTT0=
EXTT1=
EXTT2=
EXTT3=
EXTT4=
EXTT5=
EXTT6=
EXTT7=
EXTT8=
EXTT9=
EXTT10=
EXTT11=
EXTT12=
EXTT13=
EXTT14=
EXTT15=
PLAYORDER=
